<?xml version="1.0" encoding="utf-8"?>
<!-- Generator: Adobe Illustrator 16.0.0, SVG Export Plug-In . SVG Version: 6.00 Build 0)  -->
<!DOCTYPE svg PUBLIC "-//W3C//DTD SVG 1.1//EN" "http://www.w3.org/Graphics/SVG/1.1/DTD/svg11.dtd">
<svg version="1.1" id="Umriss" xmlns="http://www.w3.org/2000/svg" xmlns:xlink="http://www.w3.org/1999/xlink" x="0px" y="0px"
	 width="1000px" height="400px" viewBox="0 0 1000 400" enable-background="new 0 0 1000 400" xml:space="preserve">
<path fill-rule="evenodd" clip-rule="evenodd" fill="#E77925" stroke="#E77925" stroke-width="0.216" stroke-miterlimit="22.9256" d="
	M664.34,222.639v-45.781h-47.645v39.466c-11.232-1.987-17.031-8.01-17.328-19.049V98.682c0-3.316-0.066-6.483,0.748-9.729
	c1.764-6.984,6.355-11.698,13.789-14.15c3.248-1.068,6.414-1.462,9.789-1.671l224.211-13.728
	c18.734,0.726,31.305,7.375,36.934,20.687c2.355,5.599,2.859,9.713,1.955,15.541L869.779,205.51
	c-1.588,10.291-2.344,22.241-7.58,31.362c-4.338,7.555-10.953,9.962-21.672,8.733L664.34,222.639L664.34,222.639z M664.34,260.021
	l245.102,31.636c14.682,1.644,23.725-1.593,29.662-11.738c7.164-12.239,8.193-28.288,10.371-42.1l23.283-147.534
	c1.234-7.821,0.549-13.344-2.688-20.864c-7.697-17.878-24.893-26.807-50.529-27.778L612.746,60.075
	c-4.621,0.277-8.961,0.804-13.412,2.245c-10.162,3.289-16.449,9.623-18.848,19c-1.119,4.364-1.029,8.607-1.029,13.062v132.383
	c0.434,15.673,9.982,23.947,27.08,26.094l10.166,1.129v49.665l-45.199,0.008l-0.001-126.803h-47.505v142.881
	c0,9.625-0.996,17.986,6.715,25.318c8.154,7.743,17.48,6.639,27.754,6.639H664.34V260.021L664.34,260.021z M363.72,176.857h111.416
	c10.397,0,15.719,1.158,23.025,9.753c8.225,9.67,6.938,18.374,6.941,30.248l-0.002,52.33c0.002,7.62,0.203,13.407-4.281,20.09
	c-3.031,4.513-7.573,8.336-13.969,11.308l31.221,51.109h-55.733l-32.676-51.433l-17.491-0.001v51.434H363.72V233.157l48.446,0.003
	l0.007,19.798l45.629,0.006l-0.007-28.182l-94.076-0.004V176.857L363.72,176.857z M203.141,176.857h111.417
	c10.397,0,15.719,1.158,23.024,9.753c8.225,9.67,6.93,18.374,6.934,30.248l0.007,52.33c0.003,7.62,0.204,13.407-4.282,20.09
	c-3.031,4.513-7.572,8.336-13.969,11.308l31.222,51.109H301.76l-32.677-51.433l-17.49-0.001v51.434h-48.453V233.157l48.448,0.003
	l-0.003,19.798l45.611,0.006l-0.001-28.182l-94.055-0.004V176.857L203.141,176.857z M199.065,351.695h-55.25l-45.843-69.337v-60.732
	l29.472-44.766l56.962,0l-50.394,73.796L199.065,351.695L199.065,351.695z M41.552,176.857H90.03v174.838H41.552V176.857z"/>
</svg>
